# xmcd
#
# Track frame offsets:
#	150
#	16682
#	37528
#	61067
#	83479
#	99075
#	118773
#	140298
#	157489
#	166598
#	183718
#	205727
#
# Disc length: 2911 seconds
#
# Revision: 0
# Processed by: cddbd v1.5.2PL0 Copyright (c) Steve Scherf et al.
# Submitted via: audiograbber 1.83.01
#
DISCID=860b5d0c
DTITLE=Erja Lyttinen - Grip Of The Blues
DYEAR=2008
DGENRE=
TTITLE0=Broadcast
TTITLE1=Everything's Fine
TTITLE2=Grip Of The Blues
TTITLE3=Steamy Windows
TTITLE4=Inner Beauty
TTITLE5=Let It Shine
TTITLE6=Wish I Had You
TTITLE7=Unreachable
TTITLE8=Voyager's Tale
TTITLE9=Tumblin'
TTITLE10=Wanna Get Closer
TTITLE11=Dissatisfaction
EXTD=
EXTT0=
EXTT1=
EXTT2=
EXTT3=
EXTT4=
EXTT5=
EXTT6=
EXTT7=
EXTT8=
EXTT9=
EXTT10=
EXTT11=
PLAYORDER=
